<svg xmlns="http://www.w3.org/2000/svg" version="1.1" xmlns:xlink="http://www.w3.org/1999/xlink" width="67.733322mm" height="78.309769mm"><svg width="67.733322mm" height="78.309769mm" viewBox="0 0 67.733322 78.309769" version="1.1" id="SvgjsSvg1195" xml:space="preserve" inkscape:version="1.3.2 (091e20e, 2023-11-25, custom)" sodipodi:docname="logo.svg" xmlns:inkscape="http://www.inkscape.org/namespaces/inkscape" xmlns:sodipodi="http://sodipodi.sourceforge.net/DTD/sodipodi-0.dtd" xmlns="http://www.w3.org/2000/svg" xmlns:svg="http://www.w3.org/2000/svg"><sodipodi:namedview id="SvgjsSodipodi:namedview1194" pagecolor="#505050" bordercolor="#ffffff" borderopacity="1" inkscape:showpageshadow="0" inkscape:pageopacity="0" inkscape:pagecheckerboard="1" inkscape:deskcolor="#505050" inkscape:document-units="mm" inkscape:zoom="1.4485269" inkscape:cx="192.60947" inkscape:cy="221.94962" inkscape:window-width="1920" inkscape:window-height="1009" inkscape:window-x="1912" inkscape:window-y="-8" inkscape:window-maximized="1" inkscape:current-layer="layer1"></sodipodi:namedview><defs id="SvgjsDefs1193"><rect x="204.34554" y="730.39722" width="448.73172" height="102.17276" id="SvgjsRect1192"></rect></defs><g inkscape:label="Layer 1" inkscape:groupmode="layer" id="SvgjsG1191" transform="translate(-78.279421,-69.278318)"><polygon class="st0" points="0,937.37 540,1249.32 1080,936.84 1080,313.98 540,0.68 0,312.93 " id="SvgjsPolygon1190" transform="matrix(0.06271605,0,0,0.06271605,78.279418,69.235674)" style="fill:#a56843;fill-opacity:1"></polygon><polygon class="st1" points="540.56,1205.3 1042.32,915.28 1042.32,336.32 540.56,44.7 39.82,335.79 37.68,914.75 " id="SvgjsPolygon1189" transform="matrix(0.06271605,0,0,0.06271605,78.279418,69.235674)" style="fill:#cb8252;fill-opacity:1;opacity:1"></polygon><path style="fill:#000000;fill-opacity:1;stroke-width:0.276673" d="m 95.855073,123.24568 c -0.177529,-0.17753 -0.179679,-0.19554 -0.179679,-1.50399 0,-1.30846 0.0023,-1.32646 0.179679,-1.50399 0.147569,-0.14757 0.252226,-0.17968 0.585622,-0.17968 h 0.405946 v -1.72027 -1.72027 h -0.941767 c -0.841918,0 -0.962218,-0.0161 -1.134646,-0.15172 l -0.19288,-0.15172 v -1.38554 c 0,-1.28794 0.01032,-1.39586 0.146405,-1.53195 0.131953,-0.13195 0.244011,-0.14641 1.135141,-0.14641 h 0.988734 l -0.01879,-5.14251 -0.01879,-5.14251 -0.984938,-0.0205 c -0.785759,-0.0164 -1.011513,-0.0446 -1.116347,-0.13945 -0.117708,-0.10652 -0.131406,-0.26534 -0.131406,-1.52369 0,-1.25834 0.0137,-1.417159 0.131406,-1.523681 0.104834,-0.09487 0.330588,-0.12308 1.116347,-0.139457 l 0.984938,-0.02053 0.01879,-5.142513 0.01879,-5.142508 h -0.974931 c -0.879955,0 -0.990539,-0.01459 -1.135141,-0.149259 -0.153888,-0.143369 -0.160208,-0.203817 -0.160208,-1.531948 v -1.382695 l 0.19288,-0.151719 0.19288,-0.15172 h 17.182962 17.18295 l 0.19288,0.15172 0.19288,0.151719 v 1.382695 c 0,1.328131 -0.006,1.388579 -0.1602,1.531948 -0.1446,0.134711 -0.25519,0.149259 -1.13465,0.149259 h -0.97444 v 1.97117 1.971163 l -0.19288,0.15172 c -0.10608,0.08345 -0.23629,0.15172 -0.28936,0.15172 -0.0531,0 -0.17876,-0.0375 -0.2793,-0.08329 -0.10055,-0.04582 -0.21739,-0.182495 -0.25966,-0.303734 -0.0457,-0.131055 -0.0768,-0.958122 -0.0768,-2.039599 v -1.819149 h -0.58612 -0.58612 l 0.0188,5.142508 0.0188,5.142513 0.56334,0.02128 0.56335,0.02129 0.0223,-2.242257 0.0223,-2.242257 0.17282,-0.139851 c 0.0951,-0.07691 0.2617,-0.139844 0.37033,-0.139844 0.10863,0 0.26145,0.0467 0.3396,0.103817 0.13389,0.09783 0.14421,0.234128 0.1787,2.360799 l 0.0366,2.256974 0.98494,0.02053 c 0.78575,0.01634 1.01151,0.04457 1.11634,0.13945 0.11771,0.106522 0.13141,0.265336 0.13141,1.523686 0,1.25835 -0.0137,1.41717 -0.13141,1.52369 -0.10483,0.0949 -0.33059,0.12307 -1.11634,0.13945 l -0.98494,0.0205 -0.0188,5.14251 -0.0188,5.14251 h 0.98873 c 0.89113,0 1.00319,0.0145 1.13514,0.14641 0.1361,0.13609 0.14641,0.24401 0.14641,1.53194 v 1.38555 l -0.19288,0.15172 c -0.17243,0.13563 -0.29273,0.15172 -1.13465,0.15172 h -0.94176 v 1.72027 1.72027 h 0.40593 c 0.3334,0 0.43806,0.0321 0.58563,0.17968 0.17753,0.17753 0.17968,0.19554 0.17968,1.50399 0,1.30845 -0.003,1.32646 -0.17968,1.50399 l -0.17968,0.17968 h -2.45895 -2.45896 l -0.17968,-0.17968 c -0.1778,-0.1778 -0.17968,-0.19382 -0.17968,-1.53195 v -1.35227 l 0.19288,-0.15172 c 0.1351,-0.10627 0.29957,-0.15172 0.54902,-0.15172 h 0.35615 v -1.72027 -1.72027 h -5.12422 -5.1242 v 1.72027 1.72027 h 0.37083 c 0.20395,0 0.43108,0.0322 0.50472,0.0717 0.0736,0.0394 0.17029,0.17609 0.21479,0.30373 0.045,0.12897 0.0809,0.71298 0.0809,1.31444 0,0.59529 -0.0342,1.1724 -0.0761,1.28246 -0.0419,0.11006 -0.13244,0.24292 -0.20131,0.29525 -0.097,0.0737 -0.67872,0.0951 -2.57753,0.0951 -1.89881,0 -2.48056,-0.0215 -2.57753,-0.0951 -0.0689,-0.0523 -0.15946,-0.18519 -0.2013,-0.29525 -0.0419,-0.11006 -0.0761,-0.68717 -0.0761,-1.28246 0,-0.60146 0.0359,-1.18547 0.0809,-1.31444 0.0445,-0.12764 0.14115,-0.26432 0.21479,-0.30373 0.0736,-0.0394 0.30077,-0.0717 0.50472,-0.0717 h 0.37083 v -1.72027 -1.72027 h -5.12422 -5.12421 v 1.72027 1.72027 h 0.35614 c 0.24946,0 0.41392,0.0455 0.54902,0.15172 l 0.19288,0.15172 v 1.35227 c 0,1.33813 -0.002,1.35415 -0.17968,1.53195 l -0.17968,0.17968 h -2.458954 -2.458955 z m 4.358907,-1.50399 v -0.58563 h -1.720273 -1.720269 v 0.58563 0.58563 h 1.720269 1.720273 z m 13.68896,0 v -0.58563 h -1.75687 -1.75687 v 0.58563 0.58563 h 1.75687 1.75687 z m 13.61575,0 v -0.58563 h -1.72027 -1.72027 v 0.58563 0.58563 h 1.72027 1.72027 z m -28.402758,-3.40394 v -1.72027 H 98.53031 97.944686 v 1.72027 1.72027 h 0.585624 0.585622 z m 13.615758,0 v -1.72027 h -0.58562 -0.58562 v 1.72027 1.72027 h 0.58562 0.58562 z m 13.61576,0 v -1.72027 h -0.58563 -0.58562 v 1.72027 1.72027 h 0.58562 0.58563 z m 2.32727,-3.42224 0.0213,-0.56732 h -4.362 -4.36198 l -0.17968,-0.17968 c -0.0988,-0.0988 -0.17968,-0.26503 -0.17968,-0.36935 0,-0.10431 0.0809,-0.27052 0.17968,-0.36934 l 0.17968,-0.17968 h 1.66854 1.66855 l -2.17764,-2.17764 -2.17764,-2.17763 -2.17763,2.17763 -2.17764,2.17764 h 1.6788 c 1.62291,0 1.68444,0.005 1.84822,0.15917 0.10976,0.10311 0.16943,0.24303 0.16943,0.3973 0,0.17008 -0.0551,0.2815 -0.19288,0.38986 l -0.19288,0.15172 h -11.1535 -11.153589 v 0.53682 c 0,0.29525 0.02202,0.55885 0.04896,0.58578 0.02692,0.0269 7.463439,0.0406 16.525579,0.0305 l 16.47661,-0.0185 z m -29.576594,-6.80788 -0.01879,-5.14251 -0.567323,-0.0213 -0.567323,-0.0214 v 5.16389 5.16389 h 0.58612 0.586118 z m 8.417694,2.96487 -2.17763,-2.17763 -2.17764,2.17763 -2.17763,2.17764 h 4.35527 4.35527 z m 5.21587,-2.98317 v -5.16081 h -0.58562 -0.58562 v 5.16081 5.16081 h 0.58562 0.58562 z m 13.61576,-0.003 v -5.1639 l -0.56733,0.0214 -0.56732,0.0213 -0.0188,5.14251 -0.0188,5.14252 h 0.58612 0.58611 z m -15.88505,0.0215 v -4.33713 l -2.17748,2.17749 -2.17748,2.17748 2.15871,2.15964 c 1.1873,1.1878 2.16716,2.15965 2.17748,2.15965 0.0103,0 0.0188,-1.95171 0.0188,-4.33713 z m 5.59799,-2.12116 c -1.16647,-1.17869 -2.14556,-2.15405 -2.17575,-2.16747 -0.0302,-0.0134 -0.0549,1.93005 -0.0549,4.31882 v 4.34323 l 2.17575,-2.17575 2.17576,-2.17576 z m -13.66815,4.24343 2.14072,-2.14165 -2.15949,-2.15856 -2.15949,-2.15856 v 4.30021 c 0,2.36512 0.008,4.30021 0.0188,4.30021 0.0103,0 0.98209,-0.96374 2.15949,-2.14165 z m 21.68591,-2.15856 v -4.30021 l -2.15949,2.15856 -2.1595,2.15856 2.14073,2.14165 c 1.17741,1.17791 2.14917,2.14165 2.1595,2.14165 0.0103,0 0.0188,-1.93509 0.0188,-4.30021 z m -18.7145,-5.12521 c -2.36195,-0.0104 -4.31246,-6.3e-4 -4.33447,0.0211 -0.022,0.022 0.93008,1.01051 2.11574,2.19668 l 2.15575,2.15668 2.17872,-2.17779 2.17872,-2.1778 z m 17.90927,0.0377 c 0,-0.0305 -1.95157,-0.0553 -4.33682,-0.0553 h -4.33682 l 2.19517,2.19609 2.19518,2.19608 2.14164,-2.14072 c 1.17791,-1.1774 2.14165,-2.16563 2.14165,-2.19609 z m 5.38042,-1.70244 v -0.58562 l -11.24383,-0.0186 c -11.15715,-0.0184 -11.24484,-0.0197 -11.37696,-0.16565 -0.0732,-0.0809 -0.13314,-0.2451 -0.13314,-0.36485 0,-0.11973 0.06,-0.284023 0.13335,-0.365066 0.12653,-0.139814 0.22259,-0.147351 1.87888,-0.147351 0.96004,0 1.74532,-0.02473 1.74507,-0.0549 -2.5e-4,-0.03017 -0.97189,-1.026601 -2.15919,-2.214224 l -2.15874,-2.159323 -2.15978,2.158853 c -1.18788,1.187373 -2.15979,2.183775 -2.15979,2.214225 0,0.03049 0.73035,0.05534 1.623,0.05534 1.4075,0 1.64078,0.01609 1.75687,0.121152 0.0836,0.07567 0.13388,0.222553 0.13388,0.391264 0,0.16824 -0.0503,0.3156 -0.13322,0.39069 -0.12001,0.10861 -0.5609,0.12243 -4.447083,0.13945 l -4.313867,0.0189 -0.02189,0.50515 c -0.01204,0.27783 -0.0048,0.54967 0.01608,0.60408 0.03176,0.0828 2.731175,0.0959 16.52917,0.0805 l 16.49121,-0.0185 z m -29.555214,-6.826181 0.01879,-5.142507 h -0.586117 -0.586118 v 5.163892 5.163892 l 0.567323,-0.02141 0.567323,-0.02141 z m 13.633564,0.01834 v -5.160825 h -0.58562 -0.58562 v 5.160812 5.160812 h 0.58562 0.58562 z m 10.54123,5.105447 c 0,-0.03049 -0.96481,-1.019765 -2.14402,-2.198468 l -2.14402,-2.143096 -2.15666,2.166278 c -1.18616,1.19146 -2.17038,2.18077 -2.18715,2.198467 -0.0168,0.01772 1.91853,0.03218 4.30067,0.03218 2.38215,0 4.33118,-0.02491 4.33118,-0.05534 z m -20.88131,-7.319697 -2.17763,-2.177634 v 4.355274 4.355268 l 2.17763,-2.17764 2.17764,-2.177628 z m 8.07079,2.159486 v -4.33712 l -2.17748,2.177478 -2.17748,2.177483 2.15871,2.159637 c 1.1873,1.187804 2.16716,2.159648 2.17748,2.159648 0.0103,0 0.0188,-1.951707 0.0188,-4.337126 z m 5.54497,-2.159486 -2.17764,-2.177634 v 4.355274 4.355268 l 2.17764,-2.17764 2.17763,-2.177628 z m 8.06754,2.159336 -0.003,-4.337283 -2.16193,2.189954 -2.16192,2.189948 2.14641,2.147328 c 1.18051,1.181032 2.15484,2.147329 2.16516,2.147329 0.0103,0 0.0173,-1.951775 0.0155,-4.337276 z m -16.54063,-2.946425 2.15856,-2.159486 h -4.35465 -4.35465 l 2.15856,2.159486 c 1.18721,1.187724 2.17544,2.159492 2.19609,2.159492 0.0206,0 1.00888,-0.971768 2.19609,-2.159492 z m 13.61575,0 2.15856,-2.159486 h -4.35465 -4.35465 l 2.15856,2.159486 c 1.18721,1.187724 2.17545,2.159492 2.19609,2.159492 0.0206,0 1.00888,-0.971768 2.19609,-2.159492 z m 7.53991,-3.843153 V 87.043523 H 112.14607 95.602189 v 0.585627 0.58562 h 16.543881 16.54387 z" id="SvgjsPath1188"></path><text xml:space="preserve" transform="matrix(0.29306568,0,0,0.29306568,36.764383,-88.68004)" id="SvgjsText1187" style="font-size:16.9681px;white-space:pre;shape-inside:url(#rect4);display:inline;fill:#000000;fill-opacity:1;stroke:none;stroke-width:15.7417;stroke-dasharray:none;stroke-opacity:1"><tspan x="204.3457" y="745.877" id="SvgjsTspan1186"><tspan style="font-family:'Roboto Condensed';-inkscape-font-specification:'Roboto Condensed, '" id="SvgjsTspan1185">impact.scaffold</tspan></tspan></text></g><style type="text/css" id="SvgjsStyle1184">
	.st0{fill:#F9ECC6;}
	.st1{opacity:0.25;fill:url(#SVGID_1_);enable-background:new    ;}
	.st2{fill:#484546;}
	.st3{fill:#3E3221;}
	.st4{fill:#FFFFFF;}
</style><style type="text/css" id="SvgjsStyle1183">
	.st0{fill:#33393F;}
	.st1{fill:#647E8C;}
	.st2{opacity:0.7;}
	.st3{fill:#F13858;}
	.st4{opacity:0.55;}
	.st5{fill:#40BE9C;}
</style></svg><style>@media (prefers-color-scheme: light) { :root { filter: none; } }
@media (prefers-color-scheme: dark) { :root { filter: none; } }
</style></svg>
