<svg xmlns="http://www.w3.org/2000/svg" version="1.1" xmlns:xlink="http://www.w3.org/1999/xlink" width="67.733322mm" height="78.309769mm"><svg width="67.733322mm" height="78.309769mm" viewBox="0 0 67.733322 78.309769" version="1.1" id="SvgjsSvg1031" xml:space="preserve" inkscape:version="1.3.2 (091e20e, 2023-11-25, custom)" sodipodi:docname="hex_scaffold.svg" xmlns:inkscape="http://www.inkscape.org/namespaces/inkscape" xmlns:sodipodi="http://sodipodi.sourceforge.net/DTD/sodipodi-0.dtd" xmlns="http://www.w3.org/2000/svg" xmlns:svg="http://www.w3.org/2000/svg"><sodipodi:namedview id="SvgjsSodipodi:namedview1030" pagecolor="#505050" bordercolor="#ffffff" borderopacity="1" inkscape:showpageshadow="0" inkscape:pageopacity="0" inkscape:pagecheckerboard="1" inkscape:deskcolor="#505050" inkscape:document-units="mm" inkscape:zoom="1.4485269" inkscape:cx="568.85376" inkscape:cy="368.99555" inkscape:window-width="1920" inkscape:window-height="1009" inkscape:window-x="1912" inkscape:window-y="-8" inkscape:window-maximized="1" inkscape:current-layer="layer1"></sodipodi:namedview><defs id="SvgjsDefs1029"><rect x="204.34554" y="730.39722" width="448.73172" height="102.17276" id="SvgjsRect1028"></rect></defs><g inkscape:label="Layer 1" inkscape:groupmode="layer" id="SvgjsG1027" transform="translate(-78.279421,-69.278318)"><g id="SvgjsG1026" transform="matrix(0.65519388,0,0,0.65519388,59.064293,-31.043525)" inkscape:export-filename="Downloads\scaffold.svg" inkscape:export-xdpi="96" inkscape:export-ydpi="96"><g id="SvgjsG1025"><polygon class="st0" points="1080,936.84 1080,313.98 540,0.68 0,312.93 0,937.37 540,1249.32 " id="SvgjsPolygon1024" transform="matrix(0.09572136,0,0,0.09572136,29.327388,153.05271)" style="fill:#cb8252;fill-opacity:1"></polygon></g><polygon class="st1" points="39.82,335.79 37.68,914.75 540.56,1205.3 1042.32,915.28 1042.32,336.32 540.56,44.7 " id="SvgjsPolygon1023" transform="matrix(0.09572136,0,0,0.09572136,29.327388,153.05271)" style="fill:#331b16;fill-opacity:1"></polygon><g id="SvgjsG1022" transform="matrix(0.9554584,0,0,0.9554584,-3.0598682,1.3757574)" style="fill:#000000"><path style="fill:#000000;fill-opacity:1;stroke-width:0.441962" d="m 61.972742,245.02435 c -0.283589,-0.28359 -0.287023,-0.31236 -0.287023,-2.4025 0,-2.09015 0.0036,-2.11891 0.287023,-2.4025 0.235729,-0.23573 0.40291,-0.28702 0.935482,-0.28702 h 0.648465 v -2.74799 -2.74799 h -1.504395 c -1.344894,0 -1.537063,-0.0257 -1.812503,-0.24236 l -0.308109,-0.24236 v -2.21329 c 0,-2.05738 0.01649,-2.22977 0.233869,-2.44716 0.210785,-0.21078 0.389788,-0.23388 1.813294,-0.23388 h 1.579421 l -0.03001,-8.21473 -0.03001,-8.21474 -1.573357,-0.0328 c -1.255185,-0.0262 -1.615808,-0.0712 -1.783272,-0.22276 -0.188028,-0.17017 -0.20991,-0.42386 -0.20991,-2.43397 0,-2.0101 0.02188,-2.2638 0.20991,-2.43396 0.167464,-0.15155 0.528087,-0.19661 1.783272,-0.22277 l 1.573357,-0.0328 0.03001,-8.21474 0.03001,-8.21473 h -1.557371 c -1.405656,0 -1.582304,-0.0233 -1.813295,-0.23843 -0.245823,-0.22902 -0.255918,-0.32558 -0.255918,-2.44716 v -2.20874 l 0.308109,-0.24236 0.30811,-0.24236 h 27.448358 27.448351 l 0.30811,0.24236 0.30811,0.24236 v 2.20874 c 0,2.12158 -0.0101,2.21814 -0.25592,2.44716 -0.23098,0.21519 -0.40764,0.23843 -1.8125,0.23843 h -1.55659 v 3.14878 3.14877 l -0.30811,0.24236 c -0.16946,0.1333 -0.37746,0.24236 -0.46223,0.24236 -0.0848,0 -0.28555,-0.0599 -0.44616,-0.13305 -0.16061,-0.0732 -0.34726,-0.29152 -0.41478,-0.48519 -0.073,-0.20935 -0.12275,-1.53052 -0.12275,-3.25809 v -2.90594 h -0.93628 -0.93628 l 0.03,8.21473 0.03,8.21474 0.8999,0.034 0.8999,0.034 0.0356,-3.58182 0.0356,-3.58182 0.27606,-0.2234 c 0.15184,-0.12286 0.41804,-0.22339 0.59157,-0.22339 0.17353,0 0.41764,0.0746 0.54249,0.16584 0.21388,0.15627 0.23036,0.374 0.28545,3.77118 l 0.0585,3.60533 1.57336,0.0328 c 1.25518,0.0261 1.61581,0.0712 1.78326,0.22276 0.18804,0.17016 0.20992,0.42386 0.20992,2.43397 0,2.01011 -0.0219,2.2638 -0.20992,2.43396 -0.16745,0.15155 -0.52808,0.1966 -1.78326,0.22276 l -1.57336,0.0328 -0.03,8.21473 -0.03,8.21474 h 1.57942 c 1.42351,0 1.60251,0.0231 1.81329,0.23387 0.2174,0.2174 0.23388,0.38979 0.23388,2.44716 v 2.2133 l -0.30812,0.24235 c -0.27544,0.21667 -0.4676,0.24236 -1.8125,0.24236 h -1.50439 v 2.74799 2.74799 h 0.64845 c 0.53258,0 0.69976,0.0513 0.93549,0.28703 0.28359,0.28358 0.28702,0.31235 0.28702,2.40249 0,2.09015 -0.004,2.11891 -0.28702,2.4025 l -0.28702,0.28703 h -3.92798 -3.92798 l -0.28702,-0.28703 c -0.28402,-0.28402 -0.28702,-0.3096 -0.28702,-2.44716 v -2.16014 l 0.30811,-0.24236 c 0.21581,-0.16976 0.47853,-0.24236 0.87701,-0.24236 h 0.56891 v -2.74799 -2.74799 h -8.185503 -8.185495 v 2.74799 2.74799 h 0.592366 c 0.325799,0 0.688613,0.0515 0.806253,0.11447 0.117628,0.063 0.272033,0.28129 0.343113,0.48519 0.07182,0.20601 0.129242,1.13893 0.129242,2.0997 0,0.95094 -0.05467,1.87282 -0.121536,2.04863 -0.06684,0.17581 -0.21155,0.38805 -0.321571,0.47163 -0.154894,0.11769 -1.084198,0.15199 -4.117385,0.15199 -3.033194,0 -3.962501,-0.0343 -4.117392,-0.15199 -0.110021,-0.0836 -0.254729,-0.29582 -0.321571,-0.47163 -0.06684,-0.17581 -0.121535,-1.09769 -0.121535,-2.04863 0,-0.96077 0.05743,-1.89369 0.129238,-2.0997 0.07108,-0.2039 0.225481,-0.42223 0.343118,-0.48519 0.117636,-0.063 0.480453,-0.11447 0.806252,-0.11447 h 0.592365 v -2.74799 -2.74799 h -8.185527 -8.185501 v 2.74799 2.74799 h 0.568911 c 0.398486,0 0.661206,0.0726 0.877016,0.24236 l 0.308109,0.24236 v 2.16014 c 0,2.13756 -0.0031,2.16314 -0.287023,2.44716 l -0.287023,0.28703 h -3.92798 -3.927976 z m 6.962989,-2.4025 v -0.93549 h -2.74799 -2.747987 v 0.93549 0.93549 h 2.747987 2.74799 z m 21.866986,0 v -0.93549 h -2.806458 -2.806458 v 0.93549 0.93549 h 2.806458 2.806458 z m 21.750033,0 v -0.93549 h -2.74798 -2.74799 v 0.93549 0.93549 h 2.74799 2.74798 z m -45.371055,-5.43751 v -2.74799 h -0.935483 -0.935487 v 2.74799 2.74799 h 0.935487 0.935483 z m 21.750048,0 v -2.74799 h -0.935484 -0.935484 v 2.74799 2.74799 h 0.935484 0.935484 z m 21.750047,0 v -2.74799 h -0.93549 -0.93549 v 2.74799 2.74799 h 0.93549 0.93549 z m 3.71763,-5.46675 0.0341,-0.90625 h -6.96793 -6.96791 l -0.28702,-0.28702 c -0.15786,-0.15787 -0.287028,-0.42336 -0.287028,-0.59 0,-0.16663 0.129168,-0.43213 0.287028,-0.58999 l 0.28702,-0.28703 h 2.66536 2.66536 l -3.47859,-3.47859 -3.478601,-3.47859 -3.478584,3.47859 -3.478596,3.47859 h 2.681743 c 2.592463,0 2.690745,0.008 2.952376,0.25426 0.175334,0.16471 0.270644,0.38822 0.270644,0.63466 0,0.27168 -0.08806,0.44967 -0.30811,0.62276 l -0.308105,0.24236 H 79.385699 61.568767 v 0.85753 c 0,0.47164 0.03518,0.89272 0.07821,0.93574 0.043,0.043 11.922226,0.0649 26.398247,0.0487 l 26.320026,-0.0295 z m -47.24617,-10.87502 -0.03001,-8.21474 -0.906251,-0.0341 -0.906252,-0.0342 v 8.24889 8.24889 h 0.936278 0.936275 z m 13.446575,4.73614 -3.478593,-3.47859 -3.478589,3.47859 -3.478594,3.47859 h 6.957183 6.957187 z m 8.331918,-4.76538 v -8.24396 h -0.935484 -0.935484 v 8.24396 8.24397 h 0.935484 0.935484 z m 21.750047,-0.005 v -8.24889 l -0.90626,0.0342 -0.90625,0.0341 -0.03,8.21474 -0.03,8.21474 h 0.93628 0.93627 z m -25.375056,0.0344 v -6.9282 l -3.478343,3.47835 -3.478342,3.47834 3.448364,3.44985 c 1.896604,1.89742 3.461855,3.44986 3.478348,3.44986 0.01651,0 0.02996,-3.11769 0.02996,-6.9282 z m 8.94233,-3.38838 c -1.863337,-1.88286 -3.427352,-3.44092 -3.475588,-3.46235 -0.04823,-0.0214 -0.0877,3.08309 -0.0877,6.89896 v 6.93794 l 3.475582,-3.47558 3.475588,-3.47559 z m -21.833745,6.77853 3.419636,-3.42111 -3.449614,-3.44812 -3.44961,-3.44812 v 6.86923 c 0,3.77808 0.01348,6.86923 0.02997,6.86923 0.01649,0 1.568814,-1.5395 3.449609,-3.42111 z m 34.641461,-3.44812 v -6.86923 l -3.44961,3.44812 -3.44962,3.44812 3.41964,3.42111 c 1.8808,1.88161 3.43312,3.42111 3.44961,3.42111 0.0165,0 0.03,-3.09115 0.03,-6.86923 z m -29.89487,-8.1871 c -3.773024,-0.0166 -6.888802,-10e-4 -6.923956,0.0337 -0.03513,0.0351 1.485721,1.61421 3.379718,3.50902 l 3.44363,3.44512 3.480326,-3.47885 3.480321,-3.47885 z m 28.60857,0.0602 c 0,-0.0487 -3.11747,-0.0884 -6.927705,-0.0884 h -6.927714 l 3.506611,3.50807 3.506612,3.50807 3.421096,-3.41963 c 1.88161,-1.8808 3.4211,-3.45942 3.4211,-3.50807 z m 8.59478,-2.7195 v -0.93548 l -17.96108,-0.0297 c -17.822627,-0.0294 -17.962715,-0.0314 -18.173757,-0.26461 -0.116973,-0.12926 -0.21268,-0.39152 -0.21268,-0.58281 0,-0.19127 0.09586,-0.45371 0.213016,-0.58317 0.202123,-0.22334 0.355563,-0.23538 3.00135,-0.23538 1.533581,0 2.788006,-0.0395 2.787603,-0.0877 -4.02e-4,-0.0482 -1.552509,-1.63991 -3.449127,-3.53704 l -3.448403,-3.44934 -3.450078,3.44859 c -1.897541,1.89673 -3.450078,3.4884 -3.450078,3.53704 0,0.0487 1.166673,0.0884 2.59261,0.0884 2.248357,0 2.62101,0.0257 2.806458,0.19353 0.133574,0.12088 0.213848,0.35551 0.213848,0.62502 0,0.26875 -0.08026,0.50414 -0.212805,0.62409 -0.191706,0.17349 -0.895989,0.19557 -7.103843,0.22276 l -6.891047,0.0302 -0.03496,0.80694 c -0.01923,0.44382 -0.0077,0.87806 0.02568,0.96497 0.05074,0.13223 4.362826,0.15321 26.403989,0.12854 l 26.343344,-0.0295 z m -47.21201,-10.90426 0.03001,-8.21473 h -0.936274 -0.936274 v 8.24889 8.24889 l 0.906251,-0.0342 0.906252,-0.0342 z m 21.778493,0.0293 v -8.24399 h -0.935484 -0.935484 v 8.24397 8.24397 h 0.935484 0.935484 z m 16.838737,8.15553 c 0,-0.0487 -1.5412,-1.62899 -3.42489,-3.51187 l -3.424893,-3.42342 -3.445083,3.46045 c -1.894793,1.90326 -3.467001,3.4836 -3.493796,3.51187 -0.02677,0.0283 3.064686,0.0514 6.86997,0.0514 3.805282,0 6.918692,-0.0398 6.918692,-0.0884 z m -33.356156,-11.69261 -3.478593,-3.47859 v 6.95719 6.95718 l 3.478593,-3.4786 3.478594,-3.47858 z m 12.89241,3.4496 v -6.92819 l -3.478343,3.47834 -3.478342,3.47835 3.448364,3.44984 c 1.896604,1.89742 3.461855,3.44986 3.478348,3.44986 0.01651,0 0.02996,-3.11769 0.02996,-6.9282 z m 8.857634,-3.4496 -3.478591,-3.47859 v 6.95719 6.95718 l 3.478591,-3.4786 3.47859,-3.47858 z m 12.887222,3.44936 -0.005,-6.92845 -3.45349,3.49827 -3.45349,3.49826 3.4287,3.43018 c 1.88578,1.8866 3.44218,3.43018 3.45867,3.43018 0.0165,0 0.0277,-3.1178 0.0248,-6.92844 z m -26.422286,-4.70667 3.44812,-3.4496 h -6.956192 -6.956188 l 3.448116,3.4496 c 1.896467,1.89729 3.475097,3.44961 3.508072,3.44961 0.03297,0 1.611609,-1.55232 3.508072,-3.44961 z m 21.750046,0 3.44811,-3.4496 h -6.956188 -6.956186 l 3.448117,3.4496 c 1.896468,1.89729 3.4751,3.44961 3.508069,3.44961 0.03296,0 1.611608,-1.55232 3.508078,-3.44961 z m 12.04438,-6.13912 V 187.1944 H 87.996259 61.56878 v 0.93549 0.93548 h 26.427479 26.427471 z" id="SvgjsPath1021"></path><text xml:space="preserve" transform="matrix(0.46814819,0,0,0.46814819,-32.419749,-93.509458)" id="SvgjsText1020" style="font-size:16.9681px;white-space:pre;shape-inside:url(#rect4);display:inline;fill:#000000;fill-opacity:1;stroke:none;stroke-width:15.7417;stroke-dasharray:none;stroke-opacity:1"><tspan x="204.3457" y="745.877" id="SvgjsTspan1019"><tspan style="font-family:'Roboto Condensed';-inkscape-font-specification:'Roboto Condensed, '" id="SvgjsTspan1018">impact.scaffold</tspan></tspan></text></g></g></g><style type="text/css" id="SvgjsStyle1017">
	.st0{fill:#F9ECC6;}
	.st1{opacity:0.25;fill:url(#SVGID_1_);enable-background:new    ;}
	.st2{fill:#484546;}
	.st3{fill:#3E3221;}
	.st4{fill:#FFFFFF;}
</style><style type="text/css" id="SvgjsStyle1016">
	.st0{fill:#33393F;}
	.st1{fill:#647E8C;}
	.st2{opacity:0.7;}
	.st3{fill:#F13858;}
	.st4{opacity:0.55;}
	.st5{fill:#40BE9C;}
</style></svg><style>@media (prefers-color-scheme: light) { :root { filter: none; } }
@media (prefers-color-scheme: dark) { :root { filter: none; } }
</style></svg>
